<svg xmlns="http://www.w3.org/2000/svg" viewBox="0 0 525 525" xmlns:xlink="http://www.w3.org/1999/xlink" class="social-icon">
  <path class="fil0" d="M404 337c-18,0 -36,1 -54,0 -6,0 -8,2 -8,9 1,56 1,113 0,170 0,6 2,9 9,9 35,-1 69,0 104,-1 6,0 12,-1 18,-2 32,-9 52,-36 52,-69 0,-63 0,-127 0,-190 0,-64 0,-129 0,-193 -1,-38 -32,-70 -69,-70 -129,0 -258,0 -387,0 -37,0 -69,32 -69,69 0,129 0,258 0,387 0,36 30,68 67,68 62,1 124,0 186,1 5,0 7,-2 6,-7 0,-58 0,-116 0,-174 0,-5 -1,-7 -6,-7 -14,1 -27,1 -40,0 -9,0 -14,-3 -14,-13 -1,-19 -1,-38 -1,-57 0,-9 6,-14 15,-14 12,0 25,-1 37,0 8,1 9,-2 9,-9 1,-25 0,-49 2,-73 5,-41 34,-73 75,-78 25,-4 50,-3 75,-3 8,0 12,5 13,15 0,15 0,29 0,44 0,12 -5,16 -17,16 -12,1 -23,0 -35,1 -17,0 -27,8 -28,25 -2,19 -1,38 -1,57 0,2 4,5 6,5 20,0 40,0 60,0 14,0 18,5 17,19 -2,17 -4,35 -6,52 -2,10 -6,13 -16,13z"/>
</svg>
