<svg xmlns="http://www.w3.org/2000/svg" version="1.0" viewBox="0 0 538 538" xmlns:xlink="http://www.w3.org/1999/xlink" class="social-icon">
  <path class="fil0" d="M534 132c-2,-13 -5,-25 -9,-37 -13,-34 -35,-59 -66,-75 -20,-10 -41,-15 -62,-17 -9,-1 -17,-1 -26,-2 -15,0 -30,-1 -45,-1 -54,0 -108,-1 -163,2 -9,0 -19,1 -28,2 -15,2 -28,5 -42,10 -29,11 -52,31 -68,57 -13,21 -19,44 -22,68 -1,9 -1,19 -2,28 0,15 -1,29 -1,44 0,52 -1,105 1,157 1,11 2,22 2,33 1,11 4,21 7,32 7,22 18,42 34,59 11,10 23,20 36,26 19,10 38,15 59,17 9,1 19,1 28,2 14,0 29,1 43,1 52,0 106,1 158,-1 12,-1 23,-1 35,-2 11,-2 23,-4 34,-8 41,-14 70,-41 87,-81 7,-19 11,-39 12,-59 1,-15 1,-30 1,-44 1,-25 1,-49 1,-64 0,-45 0,-80 -1,-115 -1,-11 -1,-22 -3,-32zm-46 246c0,13 -2,26 -5,39 -5,17 -14,32 -27,44 -11,11 -25,17 -40,21 -9,3 -18,4 -27,5 -23,2 -46,2 -70,2 -16,0 -33,0 -50,0 -23,0 -46,0 -69,0 -13,0 -27,0 -40,-1 -13,-1 -26,-2 -39,-6 -11,-3 -22,-7 -32,-14 -14,-12 -25,-26 -31,-43 -3,-9 -5,-19 -6,-29 -2,-11 -2,-21 -2,-32 -2,-44 -1,-88 -1,-132 0,-15 0,-29 0,-43 0,-12 1,-25 2,-37 1,-15 3,-30 9,-44 11,-23 27,-40 51,-49 11,-4 22,-6 33,-7 10,-1 21,-2 31,-2 39,-2 78,-1 118,-1 19,0 37,0 56,0 13,1 25,1 37,2 16,1 31,4 45,10 23,10 39,27 48,51 4,10 6,20 7,30 2,11 2,22 2,33 2,52 1,105 1,158 0,15 0,30 -1,45z"/>
  <path class="fil0" d="M269 131c-76,0 -138,62 -138,138 0,76 62,138 138,138 77,0 139,-62 138,-138 0,-76 -62,-138 -138,-138zm0 228c-49,0 -90,-40 -90,-90 0,-49 41,-90 90,-89 50,0 90,40 90,89 0,50 -40,90 -90,90z"/>
  <path class="fil0" d="M413 93c-18,0 -33,15 -33,33 0,17 15,32 33,32 18,0 32,-15 32,-32 0,-18 -14,-33 -32,-33z"/>
</svg>
